<svg id="Layer_1" data-name="Layer 1" xmlns="http://www.w3.org/2000/svg" viewBox="0 0 242.1 131.03"><defs><style>.cls-1{fill:none;stroke:#fff;stroke-miterlimit:10;stroke-width:2.1px;}.cls-2{fill:#fff;}</style></defs><title>glove-v1.0</title><path class="cls-1" d="M30,164.47V35.53H270V164.47H30Z" transform="translate(-28.95 -34.48)"/><path class="cls-2" d="M58.68,144.47H54.39a16.18,16.18,0,0,1-3.63-.24,1.33,1.33,0,0,1-.76-1.48L50.29,140l9.16-.67q5.25,0,6.54-1.38t2.24-7.11a2.8,2.8,0,0,0,.1-0.67,1.8,1.8,0,0,1,.1-0.57l1.34-7.92-8,4.39q-6.11,0-8.54-2.48t-2.43-7.49q0-5,.43-10.07a99.43,99.43,0,0,1,1.62-11,71.32,71.32,0,0,1,3-10.73,24.09,24.09,0,0,1,4.68-8A8.69,8.69,0,0,1,67,73.09l10.31,1a22.32,22.32,0,0,1,4.2.24,1,1,0,0,1,1,1q0,0.76-8.78,56.49-1.15,7.25-4,9.92t-11,2.67m2.91-58.87-1.41,3.63a55.2,55.2,0,0,0-2.5,11.21,89.49,89.49,0,0,0-1.1,12.21q0,4.63,1.43,6.49T62.79,121L71,116.7l-0.19-2.39L76,80.92l0.86-2.39L68,78.34q-3.63,0-6.44,7.25h0Z" transform="translate(-28.95 -34.48)"/><path class="cls-2" d="M97.42,125a2.66,2.66,0,0,1-.19-1.15q0-.76,10.69-68.32,4.68,0,5.06.76a2.8,2.8,0,0,1,.19,1.19q0,0.81-10.69,68.27Q97.81,125.76,97.42,125Z" transform="translate(-28.95 -34.48)"/><path class="cls-2" d="M153.44,111.07l-1,3.39q-1,3.39-5,7.49a13,13,0,0,1-9.73,4.1q-5.77,0-8.11-2.29T127.29,115a106.2,106.2,0,0,1,.86-13.26A83,83,0,0,1,131,88.26a25.57,25.57,0,0,1,6-10.73,13.07,13.07,0,0,1,9.73-4.06q5.77,0,8.16,2.24t2.39,8.49a101.5,101.5,0,0,1-.91,13.17,89,89,0,0,1-2.91,13.69m-19,8.35,0.64,0.79q0.64,0.79,3.89.79t5.82-4.15a32.58,32.58,0,0,0,3.91-10.16,96,96,0,0,0,2.77-21.47q0-3.63-1.29-5.15t-4.53-1.53q-3.24,0-5.82,4a30.8,30.8,0,0,0-3.91,9.92,94.37,94.37,0,0,0-2.77,21.76Q133.11,117.84,134.4,119.42Z" transform="translate(-28.95 -34.48)"/><path class="cls-2" d="M188.84,56.3a2.8,2.8,0,0,1,.19,1.19q0,0.81-2.39,16h7.06q6,0,8.35,2.39t2.34,7.73a104.42,104.42,0,0,1-.76,11.93,139.14,139.14,0,0,1-2.39,13.93,36.33,36.33,0,0,1-4.87,12.26q-3.24,4.91-7.54,4.91-1.72,0-9.64-6.3-0.57,3.82-1.38,4.44t-4.91.62l11-69.85q4.58,0,5,.76m-0.67,65.17q3.24,0,5.77-7.68a86,86,0,0,0,3.58-15.55,98.46,98.46,0,0,0,1-12q0-4.15-1.24-5.92a4.66,4.66,0,0,0-4.1-1.77h-8.3l0.48,1.81-5.25,33.87-0.76,2.39q8,4.87,8.78,4.87h0Z" transform="translate(-28.95 -34.48)"/><path class="cls-2" d="M244.08,124.43A62,62,0,0,1,231.44,126q-5.1,0-7.49-2.19t-2.39-6.63a91.32,91.32,0,0,1,1.34-13q1.34-8.54,1.67-10.64t1-5.44a32.81,32.81,0,0,1,1.29-4.77q0.57-1.43,1.53-3.58a7.34,7.34,0,0,1,2.05-3q1.1-.81,2.62-1.86,2.39-1.53,7.68-1.53T248,75.62q2,2.15,2,6.63a38.47,38.47,0,0,1-1.62,10.11A11.71,11.71,0,0,1,244.66,98a9.89,9.89,0,0,1-6.58,2.24h-9.45v2.39a86.23,86.23,0,0,0-1.43,11.93q0,3.34,1.38,4.77t6.06,1.43a46.93,46.93,0,0,0,10.21-1.24l-0.76,4.87m-6.77-29.29a5.32,5.32,0,0,0,3.63-1.34,7.5,7.5,0,0,0,2.19-3.34,19.55,19.55,0,0,0,1.24-6.11q0-5.82-4.2-5.82a7.93,7.93,0,0,0-6,2.19,10.38,10.38,0,0,0-2.15,5q-0.72,3.48-1.19,7l-0.76,2.39h7.25Z" transform="translate(-28.95 -34.48)"/></svg>